<?xml version="1.0" encoding="UTF-8" standalone="no"?>
<svg
   xmlns:dc="http://purl.org/dc/elements/1.1/"
   xmlns:cc="http://creativecommons.org/ns#"
   xmlns:rdf="http://www.w3.org/1999/02/22-rdf-syntax-ns#"
   xmlns:svg="http://www.w3.org/2000/svg"
   xmlns="http://www.w3.org/2000/svg"
   xmlns:sodipodi="http://sodipodi.sourceforge.net/DTD/sodipodi-0.dtd"
   xmlns:inkscape="http://www.inkscape.org/namespaces/inkscape"
   width="1024"
   height="1024"
   viewBox="0 0 270.93333 270.93333"
   version="1.1"
   id="svg8"
   inkscape:version="1.0.2-2 (e86c870879, 2021-01-15)"
   sodipodi:docname="Logo Sketch v1.svg"
   inkscape:export-filename="C:\Users\James Choi\OneDrive\Business\Propster\Design Resources\LOGO\256px Logo 1.png"
   inkscape:export-xdpi="24"
   inkscape:export-ydpi="24">
  <defs
     id="defs2">
    <rect
       x="13075.253"
       y="2101.3799"
       width="676.51263"
       height="341.24973"
       id="rect1506" />
    <rect
       x="9205.3076"
       y="-456.68356"
       width="2098.8125"
       height="551.46466"
       id="rect1323" />
    <rect
       x="8184.4858"
       y="-528.32019"
       width="2999.7842"
       height="1535.7104"
       id="rect1250" />
    <rect
       x="7450.21"
       y="-702.93451"
       width="1705.8474"
       height="1535.7104"
       id="rect1244" />
    <rect
       x="7499.4604"
       y="-546.22937"
       width="1889.4163"
       height="1347.6642"
       id="rect1224" />
    <rect
       x="1408.1075"
       y="201.47804"
       width="689.50262"
       height="170.13701"
       id="rect1108" />
    <rect
       x="1408.1075"
       y="201.47804"
       width="689.50262"
       height="170.13701"
       id="rect1166" />
    <rect
       x="1408.1075"
       y="201.47804"
       width="689.50262"
       height="170.13701"
       id="rect1198" />
    <rect
       x="1408.1075"
       y="201.47804"
       width="689.50262"
       height="170.13701"
       id="rect1240" />
    <rect
       x="1408.1075"
       y="201.47804"
       width="689.50262"
       height="170.13701"
       id="rect1266" />
    <rect
       x="1408.1075"
       y="201.47804"
       width="689.50262"
       height="170.13701"
       id="rect1284" />
    <rect
       x="1408.1075"
       y="201.47804"
       width="689.50262"
       height="170.13701"
       id="rect1388" />
    <rect
       x="1408.1075"
       y="201.47804"
       width="689.50262"
       height="170.13701"
       id="rect1402" />
    <rect
       x="1408.1075"
       y="201.47804"
       width="689.50262"
       height="170.13701"
       id="rect1482" />
    <rect
       x="1408.1075"
       y="201.47804"
       width="689.50262"
       height="170.13701"
       id="rect1502" />
  </defs>
  <sodipodi:namedview
     id="base"
     pagecolor="#ffffff"
     bordercolor="#666666"
     borderopacity="0.43529412"
     inkscape:pageopacity="0"
     inkscape:pageshadow="2"
     inkscape:zoom="0.45254834"
     inkscape:cx="353.99298"
     inkscape:cy="651.18603"
     inkscape:document-units="px"
     inkscape:current-layer="g1558"
     inkscape:document-rotation="0"
     showgrid="true"
     showborder="true"
     inkscape:snap-smooth-nodes="true"
     showguides="true"
     inkscape:guide-bbox="true"
     inkscape:snap-grids="true"
     inkscape:snap-intersection-paths="true"
     inkscape:window-width="1920"
     inkscape:window-height="1017"
     inkscape:window-x="-8"
     inkscape:window-y="-8"
     inkscape:window-maximized="1"
     units="px">
    <sodipodi:guide
       position="133.5319,277.1345"
       orientation="1,0"
       id="guide1593" />
  </sodipodi:namedview>
  <metadata
     id="metadata5">
    <rdf:RDF>
      <cc:Work
         rdf:about="">
        <dc:format>image/svg+xml</dc:format>
        <dc:type
           rdf:resource="http://purl.org/dc/dcmitype/StillImage" />
        <dc:title></dc:title>
      </cc:Work>
    </rdf:RDF>
  </metadata>
  <g
     inkscape:label="Layer 1"
     inkscape:groupmode="layer"
     id="layer1">
    <text
       xml:space="preserve"
       id="text1222"
       style="font-size:10.5833px;line-height:1.25;font-family:Arial;-inkscape-font-specification:Arial;white-space:pre;shape-inside:url(#rect1224);" />
    <text
       xml:space="preserve"
       id="text1242"
       style="font-size:10.5833px;line-height:1.25;font-family:Arial;-inkscape-font-specification:Arial;white-space:pre;shape-inside:url(#rect1244);" />
    <text
       xml:space="preserve"
       id="text1248"
       style="font-size:10.5833px;line-height:1.25;font-family:Arial;-inkscape-font-specification:Arial;white-space:pre;shape-inside:url(#rect1250);" />
    <text
       xml:space="preserve"
       id="text1321"
       style="font-size:10.5833px;line-height:1.25;font-family:Arial;-inkscape-font-specification:Arial;white-space:pre;shape-inside:url(#rect1323);" />
    <circle
       style="opacity:0.5;fill:#4361ee;fill-opacity:1;stroke:#ff0000;stroke-width:0.264583"
       id="path1408"
       sodipodi:type="arc"
       sodipodi:cx="10387.111"
       sodipodi:cy="-226.10313"
       sodipodi:rx="31.911001"
       sodipodi:ry="1.9100572e-12"
       sodipodi:start="0"
       sodipodi:end="3.1509651"
       sodipodi:open="true"
       sodipodi:arc-type="arc"
       d="m 39333.295,-854.56879 a 97.763466,0.00577199 0 0 1 -49.147,0.005 97.763466,0.00577199 0 0 1 -98.027,-3e-5 97.763466,0.00577199 0 0 1 -48.349,-0.005" />
    <g
       id="g1558"
       transform="translate(-13643.851,-2641.5555)"
       inkscape:export-xdpi="36330.57"
       inkscape:export-ydpi="36330.57">
      <g
         id="g1519"
         style="stroke:#00ffff" />
      <g
         id="g1589"
         transform="matrix(0.20776707,0,0,0.20776707,10720.328,2126.3929)"
         inkscape:export-xdpi="42.760944"
         inkscape:export-ydpi="42.760944">
        <path
           id="path1490"
           style="opacity:0.5;fill:#4361ee;fill-opacity:1;stroke:#00ffff;stroke-width:0.264583"
           d="m 14713.855,2798.7516 c -5.778,2.6956 -12.534,6.5908 -20.058,11.5342 -25.377,16.6725 -59.532,45.318 -94.737,80.5233 l -380.442,380.4413 c -63.596,63.5962 -105.809,123.7808 -94.647,134.9427 11.162,11.1619 71.347,-31.0507 134.943,-94.6469 l 380.441,-380.4414 c 31.275,-31.2751 57.372,-61.7201 74.5,-85.9203 17.128,24.2002 43.225,54.6452 74.5,85.9203 l 380.441,380.4414 c 63.596,63.5962 123.781,105.8088 134.943,94.6469 11.162,-11.1619 -31.051,-71.3465 -94.647,-134.9427 l -90.39,-90.3898 v -28.1337 -56.8926 -24.7499 c -1.206,-6.7963 -14.944,-12.1207 -31.824,-12.1207 -16.881,0 -30.619,5.3244 -31.825,12.1207 v 23.9158 c -0.06,-0.01 -0.118,-0.01 -0.173,-0.014 v 22.0524 l -226.23,-226.2296 c -35.205,-35.2053 -69.36,-63.8507 -94.737,-80.5232 -3.761,-2.4716 -7.331,-4.6814 -10.683,-6.61 -3.351,-1.9287 -6.485,-3.5764 -9.374,-4.9242 z"
           transform="translate(-7.12163e-5)" />
        <rect
           style="opacity:0.5;fill:#4361ee;fill-opacity:1;stroke:#00ffff;stroke-width:0.611953"
           id="rect1492"
           width="63.518063"
           height="226.27028"
           x="-8255.0654"
           y="-12939.965"
           ry="544.52875"
           rx="152.85886"
           transform="rotate(135)" />
        <rect
           style="opacity:0.5;fill:#4361ee;fill-opacity:1;stroke:#00ffff;stroke-width:0.611953"
           id="rect1498"
           width="63.518063"
           height="226.27028"
           x="-8134.2637"
           y="-12819.163"
           ry="544.52875"
           rx="152.85886"
           transform="rotate(135)" />
        <rect
           style="opacity:0.5;fill:#4361ee;fill-opacity:1;stroke:#00ffff;stroke-width:0.611953"
           id="rect1500"
           width="63.518063"
           height="226.27028"
           x="-8014.9316"
           y="-12699.83"
           ry="544.52875"
           rx="152.85886"
           transform="rotate(135)" />
      </g>
    </g>
  </g>
</svg>
